# xmcd
#
# Track frame offsets: 
#        150
#        46445
#        86171
#        116352
#        183462
#        229797
#
# Disc length: 3433 seconds
#
# Revision: 4
# Processed by: cddbd v1.5.2PL0 Copyright (c) Steve Scherf et al.
# Submitted via: ExactAudioCopy v0.99pb5
#
DISCID=480d6706
DTITLE=Joachin Kuhn, Daniel Humar, J.-F. Jenny-Clark - Live Theatre de
DTITLE=la Ville, Paris 1989
DYEAR=1990
DGENRE=Jazz
TTITLE0=Changement
TTITLE1=Last Tango In Paris
TTITLE2=Clever Feelings
TTITLE3=Guylene
TTITLE4=Yesterdays
TTITLE5=Para
EXTD=
EXTT0=
EXTT1=
EXTT2=
EXTT3=
EXTT4=
EXTT5=
PLAYORDER=
